<svg xmlns="http://www.w3.org/2000/svg" viewBox="0 0 215.24 180.53"><g id="Camada_2" data-name="Camada 2"><g id="Camada_1-2" data-name="Camada 1"><path d="M50.61,109.64a20.25,20.25,0,1,0,17.56,10.13A20.16,20.16,0,0,0,50.61,109.64ZM65.3,133.83a15.22,15.22,0,0,1-14.65,11.25A15.18,15.18,0,1,1,65.3,133.83Z"/><path d="M208.45,38.77A50.63,50.63,0,0,0,139.3,20.24a5.06,5.06,0,0,0-6.91-1.85L106.08,33.58a5.06,5.06,0,0,0-1.85,6.91L88.89,49.35A7.58,7.58,0,0,0,79,46.3L76.69,44a7.94,7.94,0,0,1,5.62-13.57,12.83,12.83,0,0,0,12-8A12.83,12.83,0,0,0,91.52,8.15L84.1.73a2.57,2.57,0,0,0-3.58,0,2.54,2.54,0,0,0,0,3.59l7.42,7.41A8,8,0,0,1,82.31,25.3a13,13,0,0,0-9.2,22.22l2.35,2.37A7.56,7.56,0,0,0,75.74,57L60.39,65.8A5.06,5.06,0,0,0,53.48,64L27.17,79.14a5.06,5.06,0,0,0-1.85,6.91,50.62,50.62,0,1,0,75.94,43.84l38-22a50.62,50.62,0,0,0,69.15-69.15ZM62,149.63a22.79,22.79,0,1,1,8.34-31.12A22.8,22.8,0,0,1,62,149.63Zm91.39-64.46a12.66,12.66,0,0,1-18.56-14.24l7.42-27.66a12.68,12.68,0,0,1,12.21-9.38,12.24,12.24,0,0,1,3.29.44,12.66,12.66,0,0,1,8.94,15.5L159.3,77.48A12.54,12.54,0,0,1,153.41,85.17Zm41-27.94L187,84.89a12.65,12.65,0,0,1-12.21,9.39,12.24,12.24,0,0,1-3.29-.44,12.67,12.67,0,0,1-9-15.5l7.42-27.66a12.67,12.67,0,0,1,12.21-9.38,13.09,13.09,0,0,1,3.29.43A12.66,12.66,0,0,1,194.37,57.23Z"/><path d="M190.81,48.71l-.2-.31c-.12-.19-.25-.38-.39-.56s-.33-.42-.51-.62h0c-.18-.2-.37-.39-.57-.58l-.3-.28c-.11-.09-.21-.19-.32-.27s-.21-.17-.32-.25a3.53,3.53,0,0,0-.34-.24l-.68-.43,0,0c-.23-.12-.46-.24-.7-.35l-.13-.06c-.23-.1-.46-.2-.7-.28h0a4.19,4.19,0,0,0-.46-.16l-.37-.11-.36-.09-.12,0-.35-.08c-.38-.07-.76-.1-1.15-.14l-.65,0c-.24,0-.48,0-.71,0l-.3,0a3.57,3.57,0,0,0-.56.07.57.57,0,0,0-.18,0c-.24,0-.48.09-.71.15l-.3.08-.37.12-.26.09-.46.17-.43.19-.17.09a3.48,3.48,0,0,0-.38.2h0a4.43,4.43,0,0,0-.46.29,4.57,4.57,0,0,0-.47.29c-.22.16-.44.32-.65.49s-.54.48-.79.74a3.15,3.15,0,0,0-.35.38.52.52,0,0,0-.1.11l-.3.37,0,0-.2.27a2.77,2.77,0,0,0-.21.31,3,3,0,0,0-.27.42,2.82,2.82,0,0,0-.21.38c-.12.21-.22.43-.32.65a4.4,4.4,0,0,0-.21.5c0,.13-.1.26-.14.39s-.13.42-.19.62v0L165,79c-.07.27-.14.54-.19.82a10.94,10.94,0,0,0-.14,1.15c0,.22,0,.43,0,.66s0,.46,0,.69a2.85,2.85,0,0,0,0,.31s0,.07,0,.1,0,.27.06.4,0,.06,0,.09,0,.07,0,.1a6.41,6.41,0,0,0,.16.76,3.18,3.18,0,0,0,.09.33c0,.11.07.22.1.34a10.06,10.06,0,0,0,.57,1.38,5,5,0,0,0,.27.51.25.25,0,0,1,0,.07c.11.19.23.37.35.55l.3.43a2.88,2.88,0,0,0,.22.27c.15.19.32.38.49.56s.22.23.33.35a2.35,2.35,0,0,0,.29.26l.5.44h0a3.79,3.79,0,0,0,.4.3l.57.37a8.92,8.92,0,0,0,.86.47,2.86,2.86,0,0,0,.47.22l.26.1.44.16.62.19a10.23,10.23,0,0,0,4,.25,1.88,1.88,0,0,0,.33-.05l.32-.06c.24-.05.48-.09.71-.16l.24-.08a3.09,3.09,0,0,0,.54-.17l.16-.06a4.46,4.46,0,0,0,.5-.22,7.76,7.76,0,0,0,.91-.46l.53-.32.23-.17a.75.75,0,0,0,.12-.07l.08-.07a5.89,5.89,0,0,0,.55-.44c.24-.21.48-.43.7-.65l.22-.24a4.91,4.91,0,0,0,.41-.48A9.44,9.44,0,0,0,183.85,86c.09-.18.17-.37.25-.55,0,0,0,0,0,0s0,0,0,0c.08-.19.15-.39.21-.58a5.08,5.08,0,0,0,.18-.59v0l7.4-27.62a.43.43,0,0,0,0,0,10.16,10.16,0,0,0,.26-3.81s0,0,0-.07,0-.26-.06-.41a0,0,0,0,1,0,0l-.06-.32a2.82,2.82,0,0,0-.07-.31,1.49,1.49,0,0,0-.07-.25,5.15,5.15,0,0,0-.16-.56s0-.07,0-.12c-.08-.23-.16-.45-.25-.66s-.17-.35-.26-.54A3.68,3.68,0,0,0,191,49l-.14-.25Zm-8.74,34.87a7.57,7.57,0,0,1-3.53,4.62,7.61,7.61,0,0,1-10.38-2.79,7.58,7.58,0,0,1-.76-5.76,7.59,7.59,0,0,1,13.91-1.82A7.47,7.47,0,0,1,182.07,83.58Zm7.41-27.66A7.5,7.5,0,0,1,186,60.53,7.58,7.58,0,0,1,174.82,52a7.62,7.62,0,0,1,7.32-5.63,7.67,7.67,0,0,1,6.59,3.8A7.53,7.53,0,0,1,189.48,55.92Z"/><path d="M164.51,45.14a2.35,2.35,0,0,0,0-.37c0-.19-.08-.39-.13-.6v0c-.06-.22-.12-.44-.19-.66a7.79,7.79,0,0,0-.31-.85,3.81,3.81,0,0,0-.23-.5.09.09,0,0,0,0-.06c-.08-.17-.16-.32-.25-.48l-.14-.25s0,0,0-.05L163,41c-.12-.19-.25-.38-.39-.56a7.49,7.49,0,0,0-.51-.61v0c-.18-.2-.37-.4-.57-.59s-.39-.35-.59-.51h0a.17.17,0,0,0-.08-.07,5,5,0,0,0-.46-.34c-.19-.14-.38-.26-.57-.38a7.1,7.1,0,0,0-.86-.46,2.86,2.86,0,0,0-.47-.22,5.42,5.42,0,0,0-.56-.22,7,7,0,0,0-.69-.22l-.07,0h0c-.21-.06-.43-.11-.64-.15a9.42,9.42,0,0,0-1.3-.16c-.21,0-.43,0-.65,0s-.48,0-.71,0l-.3,0a5.39,5.39,0,0,0-.56.08l-.48.09a4.87,4.87,0,0,0-.52.12l-.64.19a6.48,6.48,0,0,0-.64.25h0l-.54.25-.05,0-.55.29-.07,0c-.19.11-.37.23-.55.35a9.68,9.68,0,0,0-1.57,1.3,5.35,5.35,0,0,0-.45.5,4.54,4.54,0,0,0-.39.48.27.27,0,0,0-.07.08A5.11,5.11,0,0,0,146,41a9,9,0,0,0-.66,1.17c-.06.12-.11.23-.16.35s-.11.26-.16.39a2.6,2.6,0,0,0-.15.42c-.07.19-.13.4-.19.61v0l-7.4,27.62c-.07.29-.14.55-.19.83a10.81,10.81,0,0,0-.14,1.16c0,.21,0,.43,0,.64s0,.48,0,.7a2.85,2.85,0,0,0,0,.31s0,.07,0,.1l.06.4s0,.06,0,.1,0,.06,0,.09a6.41,6.41,0,0,0,.16.76c0,.11.06.22.09.33s.07.22.1.33.17.49.27.74.21.47.33.7.13.26.2.38l.12.22c.09.15.19.3.29.45s.23.33.35.5a7.64,7.64,0,0,0,.51.62h0c.19.2.37.4.57.58l.3.29a3.92,3.92,0,0,0,.32.25,3.92,3.92,0,0,0,.32.25,2.7,2.7,0,0,0,.34.25l.68.43h0l.7.36.13.05a6.07,6.07,0,0,0,.7.29h0a8,8,0,0,0,.83.26l.32.09.12,0a3,3,0,0,0,.41.08h.07l.46.08.53,0a5.23,5.23,0,0,0,.68,0h.51l.35,0,.51-.05.12,0,.48-.08.57-.12c.24-.07.48-.13.71-.22a4.34,4.34,0,0,0,.47-.16l.11-.06c.19-.07.38-.16.57-.25a7.49,7.49,0,0,0,.69-.36,4.23,4.23,0,0,0,.53-.33l.23-.16.12-.08c.24-.18.48-.36.7-.56l.18-.14.4-.4,0,0a3.23,3.23,0,0,0,.25-.29,2,2,0,0,0,.27-.31,3.47,3.47,0,0,0,.3-.37,5.54,5.54,0,0,0,.38-.53,8.63,8.63,0,0,0,.64-1.15c.1-.2.18-.4.27-.6s.15-.4.22-.61.13-.38.18-.57v0l7.4-27.61s0,0,0,0a10.28,10.28,0,0,0,.26-3.83A.9.9,0,0,0,164.51,45.14Zm-10.1,31a7.5,7.5,0,0,1-3.53,4.61,7.59,7.59,0,1,1-7.6-13.14,7.5,7.5,0,0,1,3.79-1,7.64,7.64,0,0,1,6.58,3.8A7.49,7.49,0,0,1,154.41,76.17Zm7.41-27.66a7.57,7.57,0,0,1-3.53,4.62A7.6,7.6,0,0,1,150.69,40a7.59,7.59,0,0,1,10.38,2.79A7.5,7.5,0,0,1,161.82,48.51Z"/></g></g></svg>